# xmcd
#
# Track frame offsets:
#	150
#	11652
#	22150
#	35440
#	47842
#	61592
#	73510
#	87532
#	101165
#	114107
#
# Disc length: 1712 seconds
#
# Revision: 0
# Processed by: cddbd v1.5.2PL0 Copyright (c) Steve Scherf et al.
# Submitted via: EZCDAudioConverter 3.1.0.1
#
DISCID=7e06ae0a
DTITLE=La Arrolladora Banda El Limón De René Camacho - Tesoros De Colección
DYEAR=2009
DGENRE=Latin
TTITLE0=Mi Gusto Es
TTITLE1=Sufro Tu Ausencia
TTITLE2=Tu Nuevo Cariñito
TTITLE3=El Ultimo Cartucho
TTITLE4=La Boa
TTITLE5=El Desastre
TTITLE6=El Tarasco
TTITLE7=Margarita
TTITLE8=Fruto Robado
TTITLE9=Diferentes
EXTD=
EXTT0=
EXTT1=
EXTT2=
EXTT3=
EXTT4=
EXTT5=
EXTT6=
EXTT7=
EXTT8=
EXTT9=
PLAYORDER=
